<svg width="2706" height="174" viewBox="0 0 2706 174" version="1.1" xmlns="http://www.w3.org/2000/svg" xmlns:xlink="http://www.w3.org/1999/xlink">
<title>Group</title>
<desc>Created using Figma</desc>
<g id="Canvas" transform="matrix(2 0 0 2 1064 -42)">
<g id="Group">
<g id="Prototype challenge">
<g id="Prototype challenge">
<use xlink:href="#path0_fill" transform="translate(-532 21)" fill="#F2F2F2"/>
</g>
</g>
<g id="Prototype challenge">
<g id="Prototype">
<use xlink:href="#path1_fill" transform="translate(377 33)" fill="#F2F2F2"/>
</g>
</g>
<g id="Prototype challenge">
<g id="User Testing">
<use xlink:href="#path2_fill" transform="translate(687 21)" fill="#F2F2F2"/>
</g>
</g>
<g id="Prototype challenge">
<g id="Storyboarding">
<use xlink:href="#path3_fill" transform="translate(20 30)" fill="#F2F2F2"/>
</g>
</g>
<g id="Prototype challenge">
<g id="Ideation">
<use xlink:href="#path4_fill" transform="translate(-240 30)" fill="#F2F2F2"/>
</g>
</g>
<g id="Arrow">
<g id="Arrow">
<use xlink:href="#path5_stroke" transform="matrix(1 -8.67362e-19 8.67362e-19 1 -341 59)" fill="#F2F2F2"/>
</g>
</g>
<g id="Arrow">
<g id="Arrow">
<use xlink:href="#path5_stroke" transform="matrix(1 -8.67362e-19 8.67362e-19 1 -81 59)" fill="#F2F2F2"/>
</g>
</g>
<g id="Arrow">
<g id="Arrow">
<use xlink:href="#path5_stroke" transform="matrix(1 -8.67362e-19 8.67362e-19 1 269 59)" fill="#F2F2F2"/>
</g>
</g>
<g id="Arrow">
<use xlink:href="#path5_stroke" transform="matrix(1 -8.67362e-19 8.67362e-19 1 564 62)" fill="#F2F2F2"/>
</g>
</g>
</g>
<defs>
<path id="path0_fill" d="M 2.736 9.296L 14.076 9.296C 15.9 9.296 17.388 9.56 18.54 10.088C 19.692 10.616 20.58 11.276 21.204 12.068C 21.828 12.86 22.248 13.724 22.464 14.66C 22.704 15.596 22.824 16.46 22.824 17.252C 22.824 18.044 22.704 18.908 22.464 19.844C 22.248 20.756 21.828 21.608 21.204 22.4C 20.58 23.192 19.692 23.852 18.54 24.38C 17.388 24.884 15.9 25.136 14.076 25.136L 7.236 25.136L 7.236 35L 2.736 35L 2.736 9.296ZM 7.236 21.464L 13.824 21.464C 14.328 21.464 14.844 21.392 15.372 21.248C 15.9 21.104 16.38 20.876 16.812 20.564C 17.268 20.228 17.628 19.796 17.892 19.268C 18.18 18.716 18.324 18.032 18.324 17.216C 18.324 16.376 18.204 15.68 17.964 15.128C 17.724 14.576 17.4 14.144 16.992 13.832C 16.584 13.496 16.116 13.268 15.588 13.148C 15.06 13.028 14.496 12.968 13.896 12.968L 7.236 12.968L 7.236 21.464ZM 26.1717 16.388L 30.0237 16.388L 30.0237 19.988L 30.0957 19.988C 30.2157 19.484 30.4437 18.992 30.7797 18.512C 31.1397 18.032 31.5597 17.6 32.0397 17.216C 32.5437 16.808 33.0957 16.484 33.6957 16.244C 34.2957 16.004 34.9077 15.884 35.5317 15.884C 36.0117 15.884 36.3357 15.896 36.5037 15.92C 36.6957 15.944 36.8877 15.968 37.0797 15.992L 37.0797 19.952C 36.7917 19.904 36.4917 19.868 36.1797 19.844C 35.8917 19.796 35.6037 19.772 35.3157 19.772C 34.6197 19.772 33.9597 19.916 33.3357 20.204C 32.7357 20.468 32.2077 20.876 31.7517 21.428C 31.2957 21.956 30.9357 22.616 30.6717 23.408C 30.4077 24.2 30.2757 25.112 30.2757 26.144L 30.2757 35L 26.1717 35L 26.1717 16.388ZM 47.0436 35.504C 45.5556 35.504 44.2236 35.264 43.0476 34.784C 41.8956 34.28 40.9116 33.596 40.0956 32.732C 39.3036 31.868 38.6916 30.836 38.2596 29.636C 37.8516 28.436 37.6476 27.116 37.6476 25.676C 37.6476 24.26 37.8516 22.952 38.2596 21.752C 38.6916 20.552 39.3036 19.52 40.0956 18.656C 40.9116 17.792 41.8956 17.12 43.0476 16.64C 44.2236 16.136 45.5556 15.884 47.0436 15.884C 48.5316 15.884 49.8516 16.136 51.0036 16.64C 52.1796 17.12 53.1636 17.792 53.9556 18.656C 54.7716 19.52 55.3836 20.552 55.7916 21.752C 56.2236 22.952 56.4396 24.26 56.4396 25.676C 56.4396 27.116 56.2236 28.436 55.7916 29.636C 55.3836 30.836 54.7716 31.868 53.9556 32.732C 53.1636 33.596 52.1796 34.28 51.0036 34.784C 49.8516 35.264 48.5316 35.504 47.0436 35.504ZM 47.0436 32.264C 47.9556 32.264 48.7476 32.072 49.4196 31.688C 50.0916 31.304 50.6436 30.8 51.0756 30.176C 51.5076 29.552 51.8196 28.856 52.0116 28.088C 52.2276 27.296 52.3356 26.492 52.3356 25.676C 52.3356 24.884 52.2276 24.092 52.0116 23.3C 51.8196 22.508 51.5076 21.812 51.0756 21.212C 50.6436 20.588 50.0916 20.084 49.4196 19.7C 48.7476 19.316 47.9556 19.124 47.0436 19.124C 46.1316 19.124 45.3396 19.316 44.6676 19.7C 43.9956 20.084 43.4436 20.588 43.0116 21.212C 42.5796 21.812 42.2556 22.508 42.0396 23.3C 41.8476 24.092 41.7516 24.884 41.7516 25.676C 41.7516 26.492 41.8476 27.296 42.0396 28.088C 42.2556 28.856 42.5796 29.552 43.0116 30.176C 43.4436 30.8 43.9956 31.304 44.6676 31.688C 45.3396 32.072 46.1316 32.264 47.0436 32.264ZM 57.663 16.388L 60.759 16.388L 60.759 10.808L 64.863 10.808L 64.863 16.388L 68.571 16.388L 68.571 19.448L 64.863 19.448L 64.863 29.384C 64.863 29.816 64.875 30.188 64.899 30.5C 64.947 30.812 65.031 31.076 65.151 31.292C 65.295 31.508 65.499 31.676 65.763 31.796C 66.027 31.892 66.387 31.94 66.843 31.94C 67.131 31.94 67.419 31.94 67.707 31.94C 67.995 31.916 68.283 31.868 68.571 31.796L 68.571 34.964C 68.115 35.012 67.671 35.06 67.239 35.108C 66.807 35.156 66.363 35.18 65.907 35.18C 64.827 35.18 63.951 35.084 63.279 34.892C 62.631 34.676 62.115 34.376 61.731 33.992C 61.371 33.584 61.119 33.08 60.975 32.48C 60.855 31.88 60.783 31.196 60.759 30.428L 60.759 19.448L 57.663 19.448L 57.663 16.388ZM 80.0553 35.504C 78.5673 35.504 77.2353 35.264 76.0593 34.784C 74.9073 34.28 73.9233 33.596 73.1073 32.732C 72.3153 31.868 71.7033 30.836 71.2713 29.636C 70.8633 28.436 70.6593 27.116 70.6593 25.676C 70.6593 24.26 70.8633 22.952 71.2713 21.752C 71.7033 20.552 72.3153 19.52 73.1073 18.656C 73.9233 17.792 74.9073 17.12 76.0593 16.64C 77.2353 16.136 78.5673 15.884 80.0553 15.884C 81.5433 15.884 82.8633 16.136 84.0153 16.64C 85.1913 17.12 86.1753 17.792 86.9673 18.656C 87.7833 19.52 88.3953 20.552 88.8033 21.752C 89.2353 22.952 89.4513 24.26 89.4513 25.676C 89.4513 27.116 89.2353 28.436 88.8033 29.636C 88.3953 30.836 87.7833 31.868 86.9673 32.732C 86.1753 33.596 85.1913 34.28 84.0153 34.784C 82.8633 35.264 81.5433 35.504 80.0553 35.504ZM 80.0553 32.264C 80.9673 32.264 81.7593 32.072 82.4313 31.688C 83.1033 31.304 83.6553 30.8 84.0873 30.176C 84.5193 29.552 84.8313 28.856 85.0233 28.088C 85.2393 27.296 85.3473 26.492 85.3473 25.676C 85.3473 24.884 85.2393 24.092 85.0233 23.3C 84.8313 22.508 84.5193 21.812 84.0873 21.212C 83.6553 20.588 83.1033 20.084 82.4313 19.7C 81.7593 19.316 80.9673 19.124 80.0553 19.124C 79.1433 19.124 78.3513 19.316 77.6793 19.7C 77.0073 20.084 76.4553 20.588 76.0233 21.212C 75.5913 21.812 75.2673 22.508 75.0513 23.3C 74.8593 24.092 74.7633 24.884 74.7633 25.676C 74.7633 26.492 74.8593 27.296 75.0513 28.088C 75.2673 28.856 75.5913 29.552 76.0233 30.176C 76.4553 30.8 77.0073 31.304 77.6793 31.688C 78.3513 32.072 79.1433 32.264 80.0553 32.264ZM 90.9911 16.388L 94.0871 16.388L 94.0871 10.808L 98.1911 10.808L 98.1911 16.388L 101.899 16.388L 101.899 19.448L 98.1911 19.448L 98.1911 29.384C 98.1911 29.816 98.2031 30.188 98.2271 30.5C 98.2751 30.812 98.3591 31.076 98.4791 31.292C 98.6231 31.508 98.8271 31.676 99.0911 31.796C 99.3551 31.892 99.7151 31.94 100.171 31.94C 100.459 31.94 100.747 31.94 101.035 31.94C 101.323 31.916 101.611 31.868 101.899 31.796L 101.899 34.964C 101.443 35.012 100.999 35.06 100.567 35.108C 100.135 35.156 99.6911 35.18 99.2351 35.18C 98.1551 35.18 97.2791 35.084 96.6071 34.892C 95.9591 34.676 95.4431 34.376 95.0591 33.992C 94.6991 33.584 94.4471 33.08 94.3031 32.48C 94.1831 31.88 94.1111 31.196 94.0871 30.428L 94.0871 19.448L 90.9911 19.448L 90.9911 16.388ZM 102.799 16.388L 107.299 16.388L 112.159 30.284L 112.231 30.284L 116.947 16.388L 121.231 16.388L 113.995 36.008C 113.659 36.848 113.323 37.652 112.987 38.42C 112.675 39.188 112.279 39.86 111.799 40.436C 111.343 41.036 110.767 41.504 110.071 41.84C 109.375 42.2 108.487 42.38 107.407 42.38C 106.447 42.38 105.499 42.308 104.563 42.164L 104.563 38.708C 104.899 38.756 105.223 38.804 105.535 38.852C 105.847 38.924 106.171 38.96 106.507 38.96C 106.987 38.96 107.383 38.9 107.695 38.78C 108.007 38.66 108.259 38.48 108.451 38.24C 108.667 38.024 108.847 37.76 108.991 37.448C 109.135 37.136 109.267 36.776 109.387 36.368L 109.855 34.928L 102.799 16.388ZM 123.627 16.388L 127.515 16.388L 127.515 18.908L 127.587 18.908C 128.163 17.828 128.967 17.06 129.999 16.604C 131.031 16.124 132.147 15.884 133.347 15.884C 134.811 15.884 136.083 16.148 137.163 16.676C 138.267 17.18 139.179 17.888 139.899 18.8C 140.619 19.688 141.159 20.732 141.519 21.932C 141.879 23.132 142.059 24.416 142.059 25.784C 142.059 27.032 141.891 28.244 141.555 29.42C 141.243 30.596 140.751 31.64 140.079 32.552C 139.431 33.44 138.603 34.16 137.595 34.712C 136.587 35.24 135.399 35.504 134.031 35.504C 133.431 35.504 132.831 35.444 132.231 35.324C 131.631 35.228 131.055 35.06 130.503 34.82C 129.951 34.58 129.435 34.28 128.955 33.92C 128.499 33.536 128.115 33.092 127.803 32.588L 127.731 32.588L 127.731 41.876L 123.627 41.876L 123.627 16.388ZM 137.955 25.712C 137.955 24.872 137.847 24.056 137.631 23.264C 137.415 22.472 137.091 21.776 136.659 21.176C 136.227 20.552 135.687 20.06 135.039 19.7C 134.391 19.316 133.647 19.124 132.807 19.124C 131.079 19.124 129.771 19.724 128.883 20.924C 128.019 22.124 127.587 23.72 127.587 25.712C 127.587 26.648 127.695 27.524 127.911 28.34C 128.151 29.132 128.499 29.816 128.955 30.392C 129.411 30.968 129.951 31.424 130.575 31.76C 131.223 32.096 131.967 32.264 132.807 32.264C 133.743 32.264 134.535 32.072 135.183 31.688C 135.831 31.304 136.359 30.812 136.767 30.212C 137.199 29.588 137.499 28.892 137.667 28.124C 137.859 27.332 137.955 26.528 137.955 25.712ZM 158.307 24.056C 158.259 23.408 158.115 22.784 157.875 22.184C 157.659 21.584 157.347 21.068 156.939 20.636C 156.555 20.18 156.075 19.82 155.499 19.556C 154.947 19.268 154.323 19.124 153.627 19.124C 152.907 19.124 152.247 19.256 151.647 19.52C 151.071 19.76 150.567 20.108 150.135 20.564C 149.727 20.996 149.391 21.512 149.127 22.112C 148.887 22.712 148.755 23.36 148.731 24.056L 158.307 24.056ZM 148.731 26.756C 148.731 27.476 148.827 28.172 149.019 28.844C 149.235 29.516 149.547 30.104 149.955 30.608C 150.363 31.112 150.879 31.52 151.503 31.832C 152.127 32.12 152.871 32.264 153.735 32.264C 154.935 32.264 155.895 32.012 156.615 31.508C 157.359 30.98 157.911 30.2 158.271 29.168L 162.159 29.168C 161.943 30.176 161.571 31.076 161.043 31.868C 160.515 32.66 159.879 33.332 159.135 33.884C 158.391 34.412 157.551 34.808 156.615 35.072C 155.703 35.36 154.743 35.504 153.735 35.504C 152.271 35.504 150.975 35.264 149.847 34.784C 148.719 34.304 147.759 33.632 146.967 32.768C 146.199 31.904 145.611 30.872 145.203 29.672C 144.819 28.472 144.627 27.152 144.627 25.712C 144.627 24.392 144.831 23.144 145.239 21.968C 145.671 20.768 146.271 19.724 147.039 18.836C 147.831 17.924 148.779 17.204 149.883 16.676C 150.987 16.148 152.235 15.884 153.627 15.884C 155.091 15.884 156.399 16.196 157.551 16.82C 158.727 17.42 159.699 18.224 160.467 19.232C 161.235 20.24 161.787 21.404 162.123 22.724C 162.483 24.02 162.579 25.364 162.411 26.756L 148.731 26.756ZM 14.724 66.616C 14.556 65.464 14.088 64.6 13.32 64.024C 12.576 63.424 11.628 63.124 10.476 63.124C 9.948 63.124 9.384 63.22 8.784 63.412C 8.184 63.58 7.632 63.916 7.128 64.42C 6.624 64.9 6.204 65.584 5.868 66.472C 5.532 67.336 5.364 68.476 5.364 69.892C 5.364 70.66 5.448 71.428 5.616 72.196C 5.808 72.964 6.096 73.648 6.48 74.248C 6.888 74.848 7.404 75.34 8.028 75.724C 8.652 76.084 9.408 76.264 10.296 76.264C 11.496 76.264 12.48 75.892 13.248 75.148C 14.04 74.404 14.532 73.36 14.724 72.016L 18.828 72.016C 18.444 74.44 17.52 76.3 16.056 77.596C 14.616 78.868 12.696 79.504 10.296 79.504C 8.832 79.504 7.536 79.264 6.408 78.784C 5.304 78.28 4.368 77.608 3.6 76.768C 2.832 75.904 2.244 74.884 1.836 73.708C 1.452 72.532 1.26 71.26 1.26 69.892C 1.26 68.5 1.452 67.192 1.836 65.968C 2.22 64.744 2.796 63.688 3.564 62.8C 4.332 61.888 5.28 61.18 6.408 60.676C 7.56 60.148 8.904 59.884 10.44 59.884C 11.52 59.884 12.54 60.028 13.5 60.316C 14.484 60.58 15.348 60.988 16.092 61.54C 16.86 62.092 17.484 62.788 17.964 63.628C 18.444 64.468 18.732 65.464 18.828 66.616L 14.724 66.616ZM 22.1639 53.296L 26.2679 53.296L 26.2679 62.836L 26.3399 62.836C 26.8439 61.996 27.5879 61.3 28.5719 60.748C 29.5799 60.172 30.6959 59.884 31.9199 59.884C 33.9599 59.884 35.5679 60.412 36.7439 61.468C 37.9199 62.524 38.5079 64.108 38.5079 66.22L 38.5079 79L 34.4039 79L 34.4039 67.3C 34.3559 65.836 34.0439 64.78 33.4679 64.132C 32.8919 63.46 31.9919 63.124 30.7679 63.124C 30.0719 63.124 29.4479 63.256 28.8959 63.52C 28.3439 63.76 27.8759 64.108 27.4919 64.564C 27.1079 64.996 26.8079 65.512 26.5919 66.112C 26.3759 66.712 26.2679 67.348 26.2679 68.02L 26.2679 79L 22.1639 79L 22.1639 53.296ZM 58.4238 74.86C 58.4238 75.364 58.4838 75.724 58.6038 75.94C 58.7478 76.156 59.0118 76.264 59.3958 76.264C 59.5158 76.264 59.6598 76.264 59.8278 76.264C 59.9958 76.264 60.1878 76.24 60.4038 76.192L 60.4038 79.036C 60.2598 79.084 60.0678 79.132 59.8278 79.18C 59.6118 79.252 59.3838 79.312 59.1438 79.36C 58.9038 79.408 58.6638 79.444 58.4238 79.468C 58.1838 79.492 57.9798 79.504 57.8118 79.504C 56.9718 79.504 56.2758 79.336 55.7238 79C 55.1718 78.664 54.8118 78.076 54.6438 77.236C 53.8278 78.028 52.8198 78.604 51.6198 78.964C 50.4438 79.324 49.3038 79.504 48.1998 79.504C 47.3598 79.504 46.5558 79.384 45.7878 79.144C 45.0198 78.928 44.3358 78.604 43.7358 78.172C 43.1598 77.716 42.6918 77.152 42.3318 76.48C 41.9958 75.784 41.8278 74.98 41.8278 74.068C 41.8278 72.916 42.0318 71.98 42.4398 71.26C 42.8718 70.54 43.4238 69.976 44.0958 69.568C 44.7918 69.16 45.5598 68.872 46.3998 68.704C 47.2638 68.512 48.1278 68.368 48.9918 68.272C 49.7358 68.128 50.4438 68.032 51.1158 67.984C 51.7878 67.912 52.3758 67.804 52.8798 67.66C 53.4078 67.516 53.8158 67.3 54.1038 67.012C 54.4158 66.7 54.5718 66.244 54.5718 65.644C 54.5718 65.116 54.4398 64.684 54.1758 64.348C 53.9358 64.012 53.6238 63.76 53.2398 63.592C 52.8798 63.4 52.4718 63.28 52.0158 63.232C 51.5598 63.16 51.1278 63.124 50.7198 63.124C 49.5678 63.124 48.6198 63.364 47.8758 63.844C 47.1318 64.324 46.7118 65.068 46.6158 66.076L 42.5118 66.076C 42.5838 64.876 42.8718 63.88 43.3758 63.088C 43.8798 62.296 44.5158 61.66 45.2838 61.18C 46.0758 60.7 46.9638 60.364 47.9478 60.172C 48.9318 59.98 49.9398 59.884 50.9718 59.884C 51.8838 59.884 52.7838 59.98 53.6718 60.172C 54.5598 60.364 55.3518 60.676 56.0478 61.108C 56.7678 61.54 57.3438 62.104 57.7758 62.8C 58.2078 63.472 58.4238 64.3 58.4238 65.284L 58.4238 74.86ZM 54.3198 69.676C 53.6958 70.084 52.9278 70.336 52.0158 70.432C 51.1038 70.504 50.1918 70.624 49.2798 70.792C 48.8478 70.864 48.4278 70.972 48.0198 71.116C 47.6118 71.236 47.2518 71.416 46.9398 71.656C 46.6278 71.872 46.3758 72.172 46.1838 72.556C 46.0158 72.916 45.9318 73.36 45.9318 73.888C 45.9318 74.344 46.0638 74.728 46.3278 75.04C 46.5918 75.352 46.9038 75.604 47.2638 75.796C 47.6478 75.964 48.0558 76.084 48.4878 76.156C 48.9438 76.228 49.3518 76.264 49.7118 76.264C 50.1678 76.264 50.6598 76.204 51.1878 76.084C 51.7158 75.964 52.2078 75.76 52.6638 75.472C 53.1438 75.184 53.5398 74.824 53.8518 74.392C 54.1638 73.936 54.3198 73.384 54.3198 72.736L 54.3198 69.676ZM 62.9477 53.296L 67.0517 53.296L 67.0517 79L 62.9477 79L 62.9477 53.296ZM 71.6313 53.296L 75.7353 53.296L 75.7353 79L 71.6313 79L 71.6313 53.296ZM 92.9869 68.056C 92.9389 67.408 92.7949 66.784 92.5549 66.184C 92.3389 65.584 92.0269 65.068 91.6189 64.636C 91.2349 64.18 90.7549 63.82 90.1789 63.556C 89.6269 63.268 89.0029 63.124 88.3069 63.124C 87.5869 63.124 86.9269 63.256 86.3269 63.52C 85.7509 63.76 85.2469 64.108 84.8149 64.564C 84.4069 64.996 84.0709 65.512 83.8069 66.112C 83.5669 66.712 83.4349 67.36 83.4109 68.056L 92.9869 68.056ZM 83.4109 70.756C 83.4109 71.476 83.5069 72.172 83.6989 72.844C 83.9149 73.516 84.2269 74.104 84.6349 74.608C 85.0429 75.112 85.5589 75.52 86.1829 75.832C 86.8069 76.12 87.5509 76.264 88.4149 76.264C 89.6149 76.264 90.5749 76.012 91.2949 75.508C 92.0389 74.98 92.5909 74.2 92.9509 73.168L 96.8389 73.168C 96.6229 74.176 96.2509 75.076 95.7229 75.868C 95.1949 76.66 94.5589 77.332 93.8149 77.884C 93.0709 78.412 92.2309 78.808 91.2949 79.072C 90.3829 79.36 89.4229 79.504 88.4149 79.504C 86.9509 79.504 85.6549 79.264 84.5269 78.784C 83.3989 78.304 82.4389 77.632 81.6469 76.768C 80.8789 75.904 80.2909 74.872 79.8829 73.672C 79.4989 72.472 79.3069 71.152 79.3069 69.712C 79.3069 68.392 79.5109 67.144 79.9189 65.968C 80.3509 64.768 80.9509 63.724 81.7189 62.836C 82.5109 61.924 83.4589 61.204 84.5629 60.676C 85.6669 60.148 86.9149 59.884 88.3069 59.884C 89.7709 59.884 91.0789 60.196 92.2309 60.82C 93.4069 61.42 94.3789 62.224 95.1469 63.232C 95.9149 64.24 96.4669 65.404 96.8029 66.724C 97.1629 68.02 97.2589 69.364 97.0909 70.756L 83.4109 70.756ZM 100.211 60.388L 104.099 60.388L 104.099 63.124L 104.171 63.196C 104.795 62.164 105.611 61.36 106.619 60.784C 107.627 60.184 108.743 59.884 109.967 59.884C 112.007 59.884 113.615 60.412 114.791 61.468C 115.967 62.524 116.555 64.108 116.555 66.22L 116.555 79L 112.451 79L 112.451 67.3C 112.403 65.836 112.091 64.78 111.515 64.132C 110.939 63.46 110.039 63.124 108.815 63.124C 108.119 63.124 107.495 63.256 106.943 63.52C 106.391 63.76 105.923 64.108 105.539 64.564C 105.155 64.996 104.855 65.512 104.639 66.112C 104.423 66.712 104.315 67.348 104.315 68.02L 104.315 79L 100.211 79L 100.211 60.388ZM 138.091 78.028C 138.091 80.836 137.299 82.924 135.715 84.292C 134.155 85.684 131.899 86.38 128.947 86.38C 128.011 86.38 127.063 86.284 126.103 86.092C 125.167 85.9 124.303 85.576 123.511 85.12C 122.743 84.664 122.095 84.064 121.567 83.32C 121.039 82.576 120.727 81.664 120.631 80.584L 124.735 80.584C 124.855 81.16 125.059 81.628 125.347 81.988C 125.635 82.348 125.971 82.624 126.355 82.816C 126.763 83.032 127.207 83.164 127.687 83.212C 128.167 83.284 128.671 83.32 129.199 83.32C 130.855 83.32 132.067 82.912 132.835 82.096C 133.603 81.28 133.987 80.104 133.987 78.568L 133.987 75.724L 133.915 75.724C 133.339 76.756 132.547 77.56 131.539 78.136C 130.555 78.712 129.487 79 128.335 79C 126.847 79 125.575 78.748 124.519 78.244C 123.487 77.716 122.623 77.008 121.927 76.12C 121.255 75.208 120.763 74.164 120.451 72.988C 120.139 71.812 119.983 70.552 119.983 69.208C 119.983 67.96 120.175 66.772 120.559 65.644C 120.943 64.516 121.495 63.532 122.215 62.692C 122.935 61.828 123.811 61.144 124.843 60.64C 125.899 60.136 127.087 59.884 128.407 59.884C 129.583 59.884 130.663 60.136 131.647 60.64C 132.631 61.12 133.387 61.888 133.915 62.944L 133.987 62.944L 133.987 60.388L 138.091 60.388L 138.091 78.028ZM 128.983 75.76C 129.895 75.76 130.663 75.58 131.287 75.22C 131.935 74.836 132.451 74.344 132.835 73.744C 133.243 73.12 133.531 72.424 133.699 71.656C 133.891 70.864 133.987 70.072 133.987 69.28C 133.987 68.488 133.891 67.72 133.699 66.976C 133.507 66.232 133.207 65.572 132.799 64.996C 132.415 64.42 131.899 63.964 131.251 63.628C 130.627 63.292 129.871 63.124 128.983 63.124C 128.071 63.124 127.303 63.316 126.679 63.7C 126.055 64.084 125.551 64.588 125.167 65.212C 124.783 65.812 124.507 66.508 124.339 67.3C 124.171 68.068 124.087 68.836 124.087 69.604C 124.087 70.372 124.183 71.128 124.375 71.872C 124.567 72.592 124.855 73.24 125.239 73.816C 125.647 74.392 126.151 74.86 126.751 75.22C 127.375 75.58 128.119 75.76 128.983 75.76ZM 155.002 68.056C 154.954 67.408 154.811 66.784 154.571 66.184C 154.355 65.584 154.042 65.068 153.635 64.636C 153.251 64.18 152.77 63.82 152.195 63.556C 151.643 63.268 151.018 63.124 150.322 63.124C 149.602 63.124 148.942 63.256 148.343 63.52C 147.767 63.76 147.262 64.108 146.831 64.564C 146.423 64.996 146.087 65.512 145.822 66.112C 145.582 66.712 145.451 67.36 145.427 68.056L 155.002 68.056ZM 145.427 70.756C 145.427 71.476 145.522 72.172 145.714 72.844C 145.93 73.516 146.243 74.104 146.65 74.608C 147.058 75.112 147.575 75.52 148.198 75.832C 148.822 76.12 149.566 76.264 150.43 76.264C 151.63 76.264 152.59 76.012 153.31 75.508C 154.054 74.98 154.606 74.2 154.966 73.168L 158.855 73.168C 158.638 74.176 158.266 75.076 157.738 75.868C 157.21 76.66 156.575 77.332 155.831 77.884C 155.087 78.412 154.246 78.808 153.31 79.072C 152.398 79.36 151.439 79.504 150.43 79.504C 148.966 79.504 147.671 79.264 146.542 78.784C 145.415 78.304 144.454 77.632 143.662 76.768C 142.894 75.904 142.306 74.872 141.899 73.672C 141.515 72.472 141.322 71.152 141.322 69.712C 141.322 68.392 141.527 67.144 141.935 65.968C 142.367 64.768 142.966 63.724 143.734 62.836C 144.526 61.924 145.474 61.204 146.578 60.676C 147.683 60.148 148.93 59.884 150.322 59.884C 151.786 59.884 153.095 60.196 154.246 60.82C 155.422 61.42 156.394 62.224 157.162 63.232C 157.93 64.24 158.482 65.404 158.819 66.724C 159.179 68.02 159.275 69.364 159.107 70.756L 145.427 70.756Z"/>
<path id="path1_fill" d="M 2.736 9.296L 14.076 9.296C 15.9 9.296 17.388 9.56 18.54 10.088C 19.692 10.616 20.58 11.276 21.204 12.068C 21.828 12.86 22.248 13.724 22.464 14.66C 22.704 15.596 22.824 16.46 22.824 17.252C 22.824 18.044 22.704 18.908 22.464 19.844C 22.248 20.756 21.828 21.608 21.204 22.4C 20.58 23.192 19.692 23.852 18.54 24.38C 17.388 24.884 15.9 25.136 14.076 25.136L 7.236 25.136L 7.236 35L 2.736 35L 2.736 9.296ZM 7.236 21.464L 13.824 21.464C 14.328 21.464 14.844 21.392 15.372 21.248C 15.9 21.104 16.38 20.876 16.812 20.564C 17.268 20.228 17.628 19.796 17.892 19.268C 18.18 18.716 18.324 18.032 18.324 17.216C 18.324 16.376 18.204 15.68 17.964 15.128C 17.724 14.576 17.4 14.144 16.992 13.832C 16.584 13.496 16.116 13.268 15.588 13.148C 15.06 13.028 14.496 12.968 13.896 12.968L 7.236 12.968L 7.236 21.464ZM 26.1717 16.388L 30.0237 16.388L 30.0237 19.988L 30.0957 19.988C 30.2157 19.484 30.4437 18.992 30.7797 18.512C 31.1397 18.032 31.5597 17.6 32.0397 17.216C 32.5437 16.808 33.0957 16.484 33.6957 16.244C 34.2957 16.004 34.9077 15.884 35.5317 15.884C 36.0117 15.884 36.3357 15.896 36.5037 15.92C 36.6957 15.944 36.8877 15.968 37.0797 15.992L 37.0797 19.952C 36.7917 19.904 36.4917 19.868 36.1797 19.844C 35.8917 19.796 35.6037 19.772 35.3157 19.772C 34.6197 19.772 33.9597 19.916 33.3357 20.204C 32.7357 20.468 32.2077 20.876 31.7517 21.428C 31.2957 21.956 30.9357 22.616 30.6717 23.408C 30.4077 24.2 30.2757 25.112 30.2757 26.144L 30.2757 35L 26.1717 35L 26.1717 16.388ZM 47.0436 35.504C 45.5556 35.504 44.2236 35.264 43.0476 34.784C 41.8956 34.28 40.9116 33.596 40.0956 32.732C 39.3036 31.868 38.6916 30.836 38.2596 29.636C 37.8516 28.436 37.6476 27.116 37.6476 25.676C 37.6476 24.26 37.8516 22.952 38.2596 21.752C 38.6916 20.552 39.3036 19.52 40.0956 18.656C 40.9116 17.792 41.8956 17.12 43.0476 16.64C 44.2236 16.136 45.5556 15.884 47.0436 15.884C 48.5316 15.884 49.8516 16.136 51.0036 16.64C 52.1796 17.12 53.1636 17.792 53.9556 18.656C 54.7716 19.52 55.3836 20.552 55.7916 21.752C 56.2236 22.952 56.4396 24.26 56.4396 25.676C 56.4396 27.116 56.2236 28.436 55.7916 29.636C 55.3836 30.836 54.7716 31.868 53.9556 32.732C 53.1636 33.596 52.1796 34.28 51.0036 34.784C 49.8516 35.264 48.5316 35.504 47.0436 35.504ZM 47.0436 32.264C 47.9556 32.264 48.7476 32.072 49.4196 31.688C 50.0916 31.304 50.6436 30.8 51.0756 30.176C 51.5076 29.552 51.8196 28.856 52.0116 28.088C 52.2276 27.296 52.3356 26.492 52.3356 25.676C 52.3356 24.884 52.2276 24.092 52.0116 23.3C 51.8196 22.508 51.5076 21.812 51.0756 21.212C 50.6436 20.588 50.0916 20.084 49.4196 19.7C 48.7476 19.316 47.9556 19.124 47.0436 19.124C 46.1316 19.124 45.3396 19.316 44.6676 19.7C 43.9956 20.084 43.4436 20.588 43.0116 21.212C 42.5796 21.812 42.2556 22.508 42.0396 23.3C 41.8476 24.092 41.7516 24.884 41.7516 25.676C 41.7516 26.492 41.8476 27.296 42.0396 28.088C 42.2556 28.856 42.5796 29.552 43.0116 30.176C 43.4436 30.8 43.9956 31.304 44.6676 31.688C 45.3396 32.072 46.1316 32.264 47.0436 32.264ZM 57.663 16.388L 60.759 16.388L 60.759 10.808L 64.863 10.808L 64.863 16.388L 68.571 16.388L 68.571 19.448L 64.863 19.448L 64.863 29.384C 64.863 29.816 64.875 30.188 64.899 30.5C 64.947 30.812 65.031 31.076 65.151 31.292C 65.295 31.508 65.499 31.676 65.763 31.796C 66.027 31.892 66.387 31.94 66.843 31.94C 67.131 31.94 67.419 31.94 67.707 31.94C 67.995 31.916 68.283 31.868 68.571 31.796L 68.571 34.964C 68.115 35.012 67.671 35.06 67.239 35.108C 66.807 35.156 66.363 35.18 65.907 35.18C 64.827 35.18 63.951 35.084 63.279 34.892C 62.631 34.676 62.115 34.376 61.731 33.992C 61.371 33.584 61.119 33.08 60.975 32.48C 60.855 31.88 60.783 31.196 60.759 30.428L 60.759 19.448L 57.663 19.448L 57.663 16.388ZM 80.0553 35.504C 78.5673 35.504 77.2353 35.264 76.0593 34.784C 74.9073 34.28 73.9233 33.596 73.1073 32.732C 72.3153 31.868 71.7033 30.836 71.2713 29.636C 70.8633 28.436 70.6593 27.116 70.6593 25.676C 70.6593 24.26 70.8633 22.952 71.2713 21.752C 71.7033 20.552 72.3153 19.52 73.1073 18.656C 73.9233 17.792 74.9073 17.12 76.0593 16.64C 77.2353 16.136 78.5673 15.884 80.0553 15.884C 81.5433 15.884 82.8633 16.136 84.0153 16.64C 85.1913 17.12 86.1753 17.792 86.9673 18.656C 87.7833 19.52 88.3953 20.552 88.8033 21.752C 89.2353 22.952 89.4513 24.26 89.4513 25.676C 89.4513 27.116 89.2353 28.436 88.8033 29.636C 88.3953 30.836 87.7833 31.868 86.9673 32.732C 86.1753 33.596 85.1913 34.28 84.0153 34.784C 82.8633 35.264 81.5433 35.504 80.0553 35.504ZM 80.0553 32.264C 80.9673 32.264 81.7593 32.072 82.4313 31.688C 83.1033 31.304 83.6553 30.8 84.0873 30.176C 84.5193 29.552 84.8313 28.856 85.0233 28.088C 85.2393 27.296 85.3473 26.492 85.3473 25.676C 85.3473 24.884 85.2393 24.092 85.0233 23.3C 84.8313 22.508 84.5193 21.812 84.0873 21.212C 83.6553 20.588 83.1033 20.084 82.4313 19.7C 81.7593 19.316 80.9673 19.124 80.0553 19.124C 79.1433 19.124 78.3513 19.316 77.6793 19.7C 77.0073 20.084 76.4553 20.588 76.0233 21.212C 75.5913 21.812 75.2673 22.508 75.0513 23.3C 74.8593 24.092 74.7633 24.884 74.7633 25.676C 74.7633 26.492 74.8593 27.296 75.0513 28.088C 75.2673 28.856 75.5913 29.552 76.0233 30.176C 76.4553 30.8 77.0073 31.304 77.6793 31.688C 78.3513 32.072 79.1433 32.264 80.0553 32.264ZM 90.9911 16.388L 94.0871 16.388L 94.0871 10.808L 98.1911 10.808L 98.1911 16.388L 101.899 16.388L 101.899 19.448L 98.1911 19.448L 98.1911 29.384C 98.1911 29.816 98.2031 30.188 98.2271 30.5C 98.2751 30.812 98.3591 31.076 98.4791 31.292C 98.6231 31.508 98.8271 31.676 99.0911 31.796C 99.3551 31.892 99.7151 31.94 100.171 31.94C 100.459 31.94 100.747 31.94 101.035 31.94C 101.323 31.916 101.611 31.868 101.899 31.796L 101.899 34.964C 101.443 35.012 100.999 35.06 100.567 35.108C 100.135 35.156 99.6911 35.18 99.2351 35.18C 98.1551 35.18 97.2791 35.084 96.6071 34.892C 95.9591 34.676 95.4431 34.376 95.0591 33.992C 94.6991 33.584 94.4471 33.08 94.3031 32.48C 94.1831 31.88 94.1111 31.196 94.0871 30.428L 94.0871 19.448L 90.9911 19.448L 90.9911 16.388ZM 102.799 16.388L 107.299 16.388L 112.159 30.284L 112.231 30.284L 116.947 16.388L 121.231 16.388L 113.995 36.008C 113.659 36.848 113.323 37.652 112.987 38.42C 112.675 39.188 112.279 39.86 111.799 40.436C 111.343 41.036 110.767 41.504 110.071 41.84C 109.375 42.2 108.487 42.38 107.407 42.38C 106.447 42.38 105.499 42.308 104.563 42.164L 104.563 38.708C 104.899 38.756 105.223 38.804 105.535 38.852C 105.847 38.924 106.171 38.96 106.507 38.96C 106.987 38.96 107.383 38.9 107.695 38.78C 108.007 38.66 108.259 38.48 108.451 38.24C 108.667 38.024 108.847 37.76 108.991 37.448C 109.135 37.136 109.267 36.776 109.387 36.368L 109.855 34.928L 102.799 16.388ZM 123.627 16.388L 127.515 16.388L 127.515 18.908L 127.587 18.908C 128.163 17.828 128.967 17.06 129.999 16.604C 131.031 16.124 132.147 15.884 133.347 15.884C 134.811 15.884 136.083 16.148 137.163 16.676C 138.267 17.18 139.179 17.888 139.899 18.8C 140.619 19.688 141.159 20.732 141.519 21.932C 141.879 23.132 142.059 24.416 142.059 25.784C 142.059 27.032 141.891 28.244 141.555 29.42C 141.243 30.596 140.751 31.64 140.079 32.552C 139.431 33.44 138.603 34.16 137.595 34.712C 136.587 35.24 135.399 35.504 134.031 35.504C 133.431 35.504 132.831 35.444 132.231 35.324C 131.631 35.228 131.055 35.06 130.503 34.82C 129.951 34.58 129.435 34.28 128.955 33.92C 128.499 33.536 128.115 33.092 127.803 32.588L 127.731 32.588L 127.731 41.876L 123.627 41.876L 123.627 16.388ZM 137.955 25.712C 137.955 24.872 137.847 24.056 137.631 23.264C 137.415 22.472 137.091 21.776 136.659 21.176C 136.227 20.552 135.687 20.06 135.039 19.7C 134.391 19.316 133.647 19.124 132.807 19.124C 131.079 19.124 129.771 19.724 128.883 20.924C 128.019 22.124 127.587 23.72 127.587 25.712C 127.587 26.648 127.695 27.524 127.911 28.34C 128.151 29.132 128.499 29.816 128.955 30.392C 129.411 30.968 129.951 31.424 130.575 31.76C 131.223 32.096 131.967 32.264 132.807 32.264C 133.743 32.264 134.535 32.072 135.183 31.688C 135.831 31.304 136.359 30.812 136.767 30.212C 137.199 29.588 137.499 28.892 137.667 28.124C 137.859 27.332 137.955 26.528 137.955 25.712ZM 158.307 24.056C 158.259 23.408 158.115 22.784 157.875 22.184C 157.659 21.584 157.347 21.068 156.939 20.636C 156.555 20.18 156.075 19.82 155.499 19.556C 154.947 19.268 154.323 19.124 153.627 19.124C 152.907 19.124 152.247 19.256 151.647 19.52C 151.071 19.76 150.567 20.108 150.135 20.564C 149.727 20.996 149.391 21.512 149.127 22.112C 148.887 22.712 148.755 23.36 148.731 24.056L 158.307 24.056ZM 148.731 26.756C 148.731 27.476 148.827 28.172 149.019 28.844C 149.235 29.516 149.547 30.104 149.955 30.608C 150.363 31.112 150.879 31.52 151.503 31.832C 152.127 32.12 152.871 32.264 153.735 32.264C 154.935 32.264 155.895 32.012 156.615 31.508C 157.359 30.98 157.911 30.2 158.271 29.168L 162.159 29.168C 161.943 30.176 161.571 31.076 161.043 31.868C 160.515 32.66 159.879 33.332 159.135 33.884C 158.391 34.412 157.551 34.808 156.615 35.072C 155.703 35.36 154.743 35.504 153.735 35.504C 152.271 35.504 150.975 35.264 149.847 34.784C 148.719 34.304 147.759 33.632 146.967 32.768C 146.199 31.904 145.611 30.872 145.203 29.672C 144.819 28.472 144.627 27.152 144.627 25.712C 144.627 24.392 144.831 23.144 145.239 21.968C 145.671 20.768 146.271 19.724 147.039 18.836C 147.831 17.924 148.779 17.204 149.883 16.676C 150.987 16.148 152.235 15.884 153.627 15.884C 155.091 15.884 156.399 16.196 157.551 16.82C 158.727 17.42 159.699 18.224 160.467 19.232C 161.235 20.24 161.787 21.404 162.123 22.724C 162.483 24.02 162.579 25.364 162.411 26.756L 148.731 26.756Z"/>
<path id="path2_fill" d="M 2.448 9.296L 6.948 9.296L 6.948 24.272C 6.948 25.136 6.984 26.012 7.056 26.9C 7.152 27.788 7.392 28.592 7.776 29.312C 8.184 30.008 8.784 30.584 9.576 31.04C 10.392 31.496 11.532 31.724 12.996 31.724C 14.46 31.724 15.588 31.496 16.38 31.04C 17.196 30.584 17.796 30.008 18.18 29.312C 18.588 28.592 18.828 27.788 18.9 26.9C 18.996 26.012 19.044 25.136 19.044 24.272L 19.044 9.296L 23.544 9.296L 23.544 25.748C 23.544 27.404 23.292 28.844 22.788 30.068C 22.284 31.292 21.564 32.324 20.628 33.164C 19.716 33.98 18.612 34.592 17.316 35C 16.02 35.408 14.58 35.612 12.996 35.612C 11.412 35.612 9.972 35.408 8.676 35C 7.38 34.592 6.264 33.98 5.328 33.164C 4.416 32.324 3.708 31.292 3.204 30.068C 2.7 28.844 2.448 27.404 2.448 25.748L 2.448 9.296ZM 31.2365 29.024C 31.3565 30.224 31.8125 31.064 32.6045 31.544C 33.3965 32.024 34.3445 32.264 35.4485 32.264C 35.8325 32.264 36.2645 32.24 36.7445 32.192C 37.2485 32.12 37.7165 32 38.1485 31.832C 38.5805 31.664 38.9285 31.424 39.1925 31.112C 39.4805 30.776 39.6125 30.344 39.5885 29.816C 39.5645 29.288 39.3725 28.856 39.0125 28.52C 38.6525 28.184 38.1845 27.92 37.6085 27.728C 37.0565 27.512 36.4205 27.332 35.7005 27.188C 34.9805 27.044 34.2485 26.888 33.5045 26.72C 32.7365 26.552 31.9925 26.348 31.2725 26.108C 30.5765 25.868 29.9405 25.544 29.3645 25.136C 28.8125 24.728 28.3685 24.212 28.0325 23.588C 27.6965 22.94 27.5285 22.148 27.5285 21.212C 27.5285 20.204 27.7685 19.364 28.2485 18.692C 28.7525 17.996 29.3765 17.444 30.1205 17.036C 30.8885 16.604 31.7285 16.304 32.6405 16.136C 33.5765 15.968 34.4645 15.884 35.3045 15.884C 36.2645 15.884 37.1765 15.992 38.0405 16.208C 38.9285 16.4 39.7205 16.724 40.4165 17.18C 41.1365 17.636 41.7245 18.236 42.1805 18.98C 42.6605 19.7 42.9605 20.576 43.0805 21.608L 38.7965 21.608C 38.6045 20.624 38.1485 19.964 37.4285 19.628C 36.7325 19.292 35.9285 19.124 35.0165 19.124C 34.7285 19.124 34.3805 19.148 33.9725 19.196C 33.5885 19.244 33.2165 19.34 32.8565 19.484C 32.5205 19.604 32.2325 19.796 31.9925 20.06C 31.7525 20.3 31.6325 20.624 31.6325 21.032C 31.6325 21.536 31.8005 21.944 32.1365 22.256C 32.4965 22.568 32.9525 22.832 33.5045 23.048C 34.0805 23.24 34.7285 23.408 35.4485 23.552C 36.1685 23.696 36.9125 23.852 37.6805 24.02C 38.4245 24.188 39.1565 24.392 39.8765 24.632C 40.5965 24.872 41.2325 25.196 41.7845 25.604C 42.3605 26.012 42.8165 26.528 43.1525 27.152C 43.5125 27.776 43.6925 28.544 43.6925 29.456C 43.6925 30.56 43.4405 31.496 42.9365 32.264C 42.4325 33.032 41.7725 33.656 40.9565 34.136C 40.1645 34.616 39.2765 34.964 38.2925 35.18C 37.3085 35.396 36.3365 35.504 35.3765 35.504C 34.2005 35.504 33.1085 35.372 32.1005 35.108C 31.1165 34.844 30.2525 34.448 29.5085 33.92C 28.7885 33.368 28.2125 32.696 27.7805 31.904C 27.3725 31.088 27.1565 30.128 27.1325 29.024L 31.2365 29.024ZM 59.5884 24.056C 59.5404 23.408 59.3964 22.784 59.1564 22.184C 58.9404 21.584 58.6284 21.068 58.2204 20.636C 57.8364 20.18 57.3564 19.82 56.7804 19.556C 56.2284 19.268 55.6044 19.124 54.9084 19.124C 54.1884 19.124 53.5284 19.256 52.9284 19.52C 52.3524 19.76 51.8484 20.108 51.4164 20.564C 51.0084 20.996 50.6724 21.512 50.4084 22.112C 50.1684 22.712 50.0364 23.36 50.0124 24.056L 59.5884 24.056ZM 50.0124 26.756C 50.0124 27.476 50.1084 28.172 50.3004 28.844C 50.5164 29.516 50.8284 30.104 51.2364 30.608C 51.6444 31.112 52.1604 31.52 52.7844 31.832C 53.4084 32.12 54.1524 32.264 55.0164 32.264C 56.2164 32.264 57.1764 32.012 57.8964 31.508C 58.6404 30.98 59.1924 30.2 59.5524 29.168L 63.4404 29.168C 63.2244 30.176 62.8524 31.076 62.3244 31.868C 61.7964 32.66 61.1604 33.332 60.4164 33.884C 59.6724 34.412 58.8324 34.808 57.8964 35.072C 56.9844 35.36 56.0244 35.504 55.0164 35.504C 53.5524 35.504 52.2564 35.264 51.1284 34.784C 50.0004 34.304 49.0404 33.632 48.2484 32.768C 47.4804 31.904 46.8924 30.872 46.4844 29.672C 46.1004 28.472 45.9084 27.152 45.9084 25.712C 45.9084 24.392 46.1124 23.144 46.5204 21.968C 46.9524 20.768 47.5524 19.724 48.3204 18.836C 49.1124 17.924 50.0604 17.204 51.1644 16.676C 52.2684 16.148 53.5164 15.884 54.9084 15.884C 56.3724 15.884 57.6804 16.196 58.8324 16.82C 60.0084 17.42 60.9804 18.224 61.7484 19.232C 62.5164 20.24 63.0684 21.404 63.4044 22.724C 63.7644 24.02 63.8604 25.364 63.6924 26.756L 50.0124 26.756ZM 66.8123 16.388L 70.6643 16.388L 70.6643 19.988L 70.7363 19.988C 70.8563 19.484 71.0843 18.992 71.4203 18.512C 71.7803 18.032 72.2003 17.6 72.6803 17.216C 73.1843 16.808 73.7363 16.484 74.3363 16.244C 74.9363 16.004 75.5483 15.884 76.1723 15.884C 76.6523 15.884 76.9763 15.896 77.1443 15.92C 77.3363 15.944 77.5283 15.968 77.7203 15.992L 77.7203 19.952C 77.4323 19.904 77.1323 19.868 76.8203 19.844C 76.5323 19.796 76.2443 19.772 75.9563 19.772C 75.2603 19.772 74.6003 19.916 73.9763 20.204C 73.3763 20.468 72.8483 20.876 72.3923 21.428C 71.9363 21.956 71.5763 22.616 71.3123 23.408C 71.0483 24.2 70.9163 25.112 70.9163 26.144L 70.9163 35L 66.8123 35L 66.8123 16.388ZM 0.288 53.296L 21.096 53.296L 21.096 57.184L 12.924 57.184L 12.924 79L 8.424 79L 8.424 57.184L 0.288 57.184L 0.288 53.296ZM 34.2759 68.056C 34.2279 67.408 34.0839 66.784 33.8439 66.184C 33.6279 65.584 33.3159 65.068 32.9079 64.636C 32.5239 64.18 32.0439 63.82 31.4679 63.556C 30.9159 63.268 30.2919 63.124 29.5959 63.124C 28.8759 63.124 28.2159 63.256 27.6159 63.52C 27.0399 63.76 26.5359 64.108 26.1039 64.564C 25.6959 64.996 25.3599 65.512 25.0959 66.112C 24.8559 66.712 24.7239 67.36 24.6999 68.056L 34.2759 68.056ZM 24.6999 70.756C 24.6999 71.476 24.7959 72.172 24.9879 72.844C 25.2039 73.516 25.5159 74.104 25.9239 74.608C 26.3319 75.112 26.8479 75.52 27.4719 75.832C 28.0959 76.12 28.8399 76.264 29.7039 76.264C 30.9039 76.264 31.8639 76.012 32.5839 75.508C 33.3279 74.98 33.8799 74.2 34.2399 73.168L 38.1279 73.168C 37.9119 74.176 37.5399 75.076 37.0119 75.868C 36.4839 76.66 35.8479 77.332 35.1039 77.884C 34.3599 78.412 33.5199 78.808 32.5839 79.072C 31.6719 79.36 30.7119 79.504 29.7039 79.504C 28.2399 79.504 26.9439 79.264 25.8159 78.784C 24.6879 78.304 23.7279 77.632 22.9359 76.768C 22.1679 75.904 21.5799 74.872 21.1719 73.672C 20.7879 72.472 20.5959 71.152 20.5959 69.712C 20.5959 68.392 20.7999 67.144 21.2079 65.968C 21.6399 64.768 22.2399 63.724 23.0079 62.836C 23.7999 61.924 24.7479 61.204 25.8519 60.676C 26.9559 60.148 28.2039 59.884 29.5959 59.884C 31.0599 59.884 32.3679 60.196 33.5199 60.82C 34.6959 61.42 35.6679 62.224 36.4359 63.232C 37.2039 64.24 37.7559 65.404 38.0919 66.724C 38.4519 68.02 38.5479 69.364 38.3799 70.756L 24.6999 70.756ZM 42.5919 73.024C 42.7119 74.224 43.1679 75.064 43.9599 75.544C 44.7519 76.024 45.6999 76.264 46.8039 76.264C 47.1879 76.264 47.6199 76.24 48.0999 76.192C 48.6039 76.12 49.0719 76 49.5039 75.832C 49.9359 75.664 50.2839 75.424 50.5479 75.112C 50.8359 74.776 50.9679 74.344 50.9439 73.816C 50.9199 73.288 50.7279 72.856 50.3679 72.52C 50.0079 72.184 49.5399 71.92 48.9639 71.728C 48.4119 71.512 47.7759 71.332 47.0559 71.188C 46.3359 71.044 45.6039 70.888 44.8599 70.72C 44.0919 70.552 43.3479 70.348 42.6279 70.108C 41.9319 69.868 41.2959 69.544 40.7199 69.136C 40.1679 68.728 39.7239 68.212 39.3879 67.588C 39.0519 66.94 38.8839 66.148 38.8839 65.212C 38.8839 64.204 39.1239 63.364 39.6039 62.692C 40.1079 61.996 40.7319 61.444 41.4759 61.036C 42.2439 60.604 43.0839 60.304 43.9959 60.136C 44.9319 59.968 45.8199 59.884 46.6599 59.884C 47.6199 59.884 48.5319 59.992 49.3959 60.208C 50.2839 60.4 51.0759 60.724 51.7719 61.18C 52.4919 61.636 53.0799 62.236 53.5359 62.98C 54.0159 63.7 54.3159 64.576 54.4359 65.608L 50.1519 65.608C 49.9599 64.624 49.5039 63.964 48.7839 63.628C 48.0879 63.292 47.2839 63.124 46.3719 63.124C 46.0839 63.124 45.7359 63.148 45.3279 63.196C 44.9439 63.244 44.5719 63.34 44.2119 63.484C 43.8759 63.604 43.5879 63.796 43.3479 64.06C 43.1079 64.3 42.9879 64.624 42.9879 65.032C 42.9879 65.536 43.1559 65.944 43.4919 66.256C 43.8519 66.568 44.3079 66.832 44.8599 67.048C 45.4359 67.24 46.0839 67.408 46.8039 67.552C 47.5239 67.696 48.2679 67.852 49.0359 68.02C 49.7799 68.188 50.5119 68.392 51.2319 68.632C 51.9519 68.872 52.5879 69.196 53.1399 69.604C 53.7159 70.012 54.1719 70.528 54.5079 71.152C 54.8679 71.776 55.0479 72.544 55.0479 73.456C 55.0479 74.56 54.7959 75.496 54.2919 76.264C 53.7879 77.032 53.1279 77.656 52.3119 78.136C 51.5199 78.616 50.6319 78.964 49.6479 79.18C 48.6639 79.396 47.6919 79.504 46.7319 79.504C 45.5559 79.504 44.4639 79.372 43.4559 79.108C 42.4719 78.844 41.6079 78.448 40.8639 77.92C 40.1439 77.368 39.5679 76.696 39.1359 75.904C 38.7279 75.088 38.5119 74.128 38.4879 73.024L 42.5919 73.024ZM 56.2919 60.388L 59.3879 60.388L 59.3879 54.808L 63.4919 54.808L 63.4919 60.388L 67.1999 60.388L 67.1999 63.448L 63.4919 63.448L 63.4919 73.384C 63.4919 73.816 63.5039 74.188 63.5279 74.5C 63.5759 74.812 63.6599 75.076 63.7799 75.292C 63.9239 75.508 64.1279 75.676 64.3919 75.796C 64.6559 75.892 65.0159 75.94 65.4719 75.94C 65.7599 75.94 66.0479 75.94 66.3359 75.94C 66.6239 75.916 66.9119 75.868 67.1999 75.796L 67.1999 78.964C 66.7439 79.012 66.2999 79.06 65.8679 79.108C 65.4359 79.156 64.9919 79.18 64.5359 79.18C 63.4559 79.18 62.5799 79.084 61.9079 78.892C 61.2599 78.676 60.7439 78.376 60.3599 77.992C 59.9999 77.584 59.7479 77.08 59.6039 76.48C 59.4839 75.88 59.4119 75.196 59.3879 74.428L 59.3879 63.448L 56.2919 63.448L 56.2919 60.388ZM 70.2602 53.296L 74.3642 53.296L 74.3642 57.184L 70.2602 57.184L 70.2602 53.296ZM 70.2602 60.388L 74.3642 60.388L 74.3642 79L 70.2602 79L 70.2602 60.388ZM 78.8358 60.388L 82.7238 60.388L 82.7238 63.124L 82.7958 63.196C 83.4198 62.164 84.2358 61.36 85.2438 60.784C 86.2518 60.184 87.3678 59.884 88.5918 59.884C 90.6318 59.884 92.2398 60.412 93.4158 61.468C 94.5918 62.524 95.1798 64.108 95.1798 66.22L 95.1798 79L 91.0758 79L 91.0758 67.3C 91.0278 65.836 90.7158 64.78 90.1398 64.132C 89.5638 63.46 88.6638 63.124 87.4398 63.124C 86.7438 63.124 86.1198 63.256 85.5678 63.52C 85.0158 63.76 84.5478 64.108 84.1638 64.564C 83.7798 64.996 83.4798 65.512 83.2638 66.112C 83.0478 66.712 82.9398 67.348 82.9398 68.02L 82.9398 79L 78.8358 79L 78.8358 60.388ZM 116.716 78.028C 116.716 80.836 115.924 82.924 114.34 84.292C 112.78 85.684 110.524 86.38 107.572 86.38C 106.636 86.38 105.688 86.284 104.728 86.092C 103.792 85.9 102.928 85.576 102.136 85.12C 101.368 84.664 100.72 84.064 100.192 83.32C 99.6637 82.576 99.3517 81.664 99.2557 80.584L 103.36 80.584C 103.48 81.16 103.684 81.628 103.972 81.988C 104.26 82.348 104.596 82.624 104.98 82.816C 105.388 83.032 105.832 83.164 106.312 83.212C 106.792 83.284 107.296 83.32 107.824 83.32C 109.48 83.32 110.692 82.912 111.46 82.096C 112.228 81.28 112.612 80.104 112.612 78.568L 112.612 75.724L 112.54 75.724C 111.964 76.756 111.172 77.56 110.164 78.136C 109.18 78.712 108.112 79 106.96 79C 105.472 79 104.2 78.748 103.144 78.244C 102.112 77.716 101.248 77.008 100.552 76.12C 99.8797 75.208 99.3877 74.164 99.0757 72.988C 98.7637 71.812 98.6077 70.552 98.6077 69.208C 98.6077 67.96 98.7997 66.772 99.1837 65.644C 99.5677 64.516 100.12 63.532 100.84 62.692C 101.56 61.828 102.436 61.144 103.468 60.64C 104.524 60.136 105.712 59.884 107.032 59.884C 108.208 59.884 109.288 60.136 110.272 60.64C 111.256 61.12 112.012 61.888 112.54 62.944L 112.612 62.944L 112.612 60.388L 116.716 60.388L 116.716 78.028ZM 107.608 75.76C 108.52 75.76 109.288 75.58 109.912 75.22C 110.56 74.836 111.076 74.344 111.46 73.744C 111.868 73.12 112.156 72.424 112.324 71.656C 112.516 70.864 112.612 70.072 112.612 69.28C 112.612 68.488 112.516 67.72 112.324 66.976C 112.132 66.232 111.832 65.572 111.424 64.996C 111.04 64.42 110.524 63.964 109.876 63.628C 109.252 63.292 108.496 63.124 107.608 63.124C 106.696 63.124 105.928 63.316 105.304 63.7C 104.68 64.084 104.176 64.588 103.792 65.212C 103.408 65.812 103.132 66.508 102.964 67.3C 102.796 68.068 102.712 68.836 102.712 69.604C 102.712 70.372 102.808 71.128 103 71.872C 103.192 72.592 103.48 73.24 103.864 73.816C 104.272 74.392 104.776 74.86 105.376 75.22C 106 75.58 106.744 75.76 107.608 75.76Z"/>
<path id="path3_fill" d="M 5.688 26.432C 5.688 27.416 5.856 28.256 6.192 28.952C 6.528 29.648 6.996 30.224 7.596 30.68C 8.196 31.112 8.88 31.436 9.648 31.652C 10.44 31.844 11.292 31.94 12.204 31.94C 13.188 31.94 14.028 31.832 14.724 31.616C 15.42 31.376 15.984 31.076 16.416 30.716C 16.848 30.356 17.16 29.948 17.352 29.492C 17.544 29.012 17.64 28.532 17.64 28.052C 17.64 27.068 17.412 26.348 16.956 25.892C 16.524 25.412 16.044 25.076 15.516 24.884C 14.604 24.548 13.536 24.236 12.312 23.948C 11.112 23.636 9.624 23.24 7.848 22.76C 6.744 22.472 5.82 22.1 5.076 21.644C 4.356 21.164 3.78 20.636 3.348 20.06C 2.916 19.484 2.604 18.872 2.412 18.224C 2.244 17.576 2.16 16.916 2.16 16.244C 2.16 14.948 2.424 13.832 2.952 12.896C 3.504 11.936 4.224 11.144 5.112 10.52C 6 9.896 7.008 9.44 8.136 9.152C 9.264 8.84 10.404 8.684 11.556 8.684C 12.9 8.684 14.16 8.864 15.336 9.224C 16.536 9.56 17.58 10.076 18.468 10.772C 19.38 11.468 20.1 12.332 20.628 13.364C 21.156 14.372 21.42 15.548 21.42 16.892L 16.92 16.892C 16.8 15.236 16.236 14.072 15.228 13.4C 14.22 12.704 12.936 12.356 11.376 12.356C 10.848 12.356 10.308 12.416 9.756 12.536C 9.204 12.632 8.7 12.812 8.244 13.076C 7.788 13.316 7.404 13.652 7.092 14.084C 6.804 14.516 6.66 15.056 6.66 15.704C 6.66 16.616 6.936 17.336 7.488 17.864C 8.064 18.368 8.808 18.752 9.72 19.016C 9.816 19.04 10.188 19.148 10.836 19.34C 11.508 19.508 12.252 19.7 13.068 19.916C 13.884 20.132 14.676 20.348 15.444 20.564C 16.236 20.756 16.8 20.9 17.136 20.996C 17.976 21.26 18.708 21.62 19.332 22.076C 19.956 22.532 20.472 23.06 20.88 23.66C 21.312 24.236 21.624 24.86 21.816 25.532C 22.032 26.204 22.14 26.876 22.14 27.548C 22.14 28.988 21.84 30.224 21.24 31.256C 20.664 32.264 19.896 33.092 18.936 33.74C 17.976 34.388 16.884 34.856 15.66 35.144C 14.436 35.456 13.188 35.612 11.916 35.612C 10.452 35.612 9.072 35.432 7.776 35.072C 6.48 34.712 5.352 34.16 4.392 33.416C 3.432 32.672 2.664 31.724 2.088 30.572C 1.512 29.396 1.212 28.016 1.188 26.432L 5.688 26.432ZM 23.6318 16.388L 26.7278 16.388L 26.7278 10.808L 30.8317 10.808L 30.8317 16.388L 34.5397 16.388L 34.5397 19.448L 30.8317 19.448L 30.8317 29.384C 30.8317 29.816 30.8438 30.188 30.8678 30.5C 30.9157 30.812 30.9997 31.076 31.1197 31.292C 31.2638 31.508 31.4677 31.676 31.7317 31.796C 31.9957 31.892 32.3558 31.94 32.8118 31.94C 33.0998 31.94 33.3877 31.94 33.6758 31.94C 33.9637 31.916 34.2518 31.868 34.5397 31.796L 34.5397 34.964C 34.0837 35.012 33.6397 35.06 33.2078 35.108C 32.7758 35.156 32.3317 35.18 31.8758 35.18C 30.7957 35.18 29.9198 35.084 29.2477 34.892C 28.5998 34.676 28.0838 34.376 27.6998 33.992C 27.3398 33.584 27.0877 33.08 26.9438 32.48C 26.8238 31.88 26.7518 31.196 26.7278 30.428L 26.7278 19.448L 23.6318 19.448L 23.6318 16.388ZM 46.024 35.504C 44.536 35.504 43.204 35.264 42.028 34.784C 40.876 34.28 39.892 33.596 39.076 32.732C 38.284 31.868 37.672 30.836 37.24 29.636C 36.832 28.436 36.628 27.116 36.628 25.676C 36.628 24.26 36.832 22.952 37.24 21.752C 37.672 20.552 38.284 19.52 39.076 18.656C 39.892 17.792 40.876 17.12 42.028 16.64C 43.204 16.136 44.536 15.884 46.024 15.884C 47.512 15.884 48.832 16.136 49.984 16.64C 51.16 17.12 52.144 17.792 52.936 18.656C 53.752 19.52 54.364 20.552 54.772 21.752C 55.204 22.952 55.42 24.26 55.42 25.676C 55.42 27.116 55.204 28.436 54.772 29.636C 54.364 30.836 53.752 31.868 52.936 32.732C 52.144 33.596 51.16 34.28 49.984 34.784C 48.832 35.264 47.512 35.504 46.024 35.504ZM 46.024 32.264C 46.936 32.264 47.728 32.072 48.4 31.688C 49.072 31.304 49.624 30.8 50.056 30.176C 50.488 29.552 50.8 28.856 50.992 28.088C 51.208 27.296 51.316 26.492 51.316 25.676C 51.316 24.884 51.208 24.092 50.992 23.3C 50.8 22.508 50.488 21.812 50.056 21.212C 49.624 20.588 49.072 20.084 48.4 19.7C 47.728 19.316 46.936 19.124 46.024 19.124C 45.112 19.124 44.32 19.316 43.648 19.7C 42.976 20.084 42.424 20.588 41.992 21.212C 41.56 21.812 41.236 22.508 41.02 23.3C 40.828 24.092 40.732 24.884 40.732 25.676C 40.732 26.492 40.828 27.296 41.02 28.088C 41.236 28.856 41.56 29.552 41.992 30.176C 42.424 30.8 42.976 31.304 43.648 31.688C 44.32 32.072 45.112 32.264 46.024 32.264ZM 58.8319 16.388L 62.6839 16.388L 62.6839 19.988L 62.7559 19.988C 62.8759 19.484 63.1039 18.992 63.4399 18.512C 63.7999 18.032 64.2199 17.6 64.6999 17.216C 65.2039 16.808 65.7559 16.484 66.3559 16.244C 66.9559 16.004 67.5679 15.884 68.1919 15.884C 68.6719 15.884 68.9959 15.896 69.1639 15.92C 69.3559 15.944 69.5479 15.968 69.7399 15.992L 69.7399 19.952C 69.4519 19.904 69.1519 19.868 68.8399 19.844C 68.5519 19.796 68.2639 19.772 67.9759 19.772C 67.2799 19.772 66.6199 19.916 65.9959 20.204C 65.3959 20.468 64.8679 20.876 64.4119 21.428C 63.9559 21.956 63.5959 22.616 63.3319 23.408C 63.0679 24.2 62.9359 25.112 62.9359 26.144L 62.9359 35L 58.8319 35L 58.8319 16.388ZM 69.4361 16.388L 73.9361 16.388L 78.7961 30.284L 78.8681 30.284L 83.5841 16.388L 87.8681 16.388L 80.6321 36.008C 80.2961 36.848 79.9601 37.652 79.6241 38.42C 79.3121 39.188 78.9161 39.86 78.4361 40.436C 77.9801 41.036 77.4041 41.504 76.7081 41.84C 76.0121 42.2 75.1241 42.38 74.0441 42.38C 73.0841 42.38 72.1361 42.308 71.2001 42.164L 71.2001 38.708C 71.5361 38.756 71.8601 38.804 72.1721 38.852C 72.4841 38.924 72.8081 38.96 73.1441 38.96C 73.6241 38.96 74.0201 38.9 74.3321 38.78C 74.6441 38.66 74.8961 38.48 75.0881 38.24C 75.3041 38.024 75.4841 37.76 75.6281 37.448C 75.7721 37.136 75.9041 36.776 76.0241 36.368L 76.4921 34.928L 69.4361 16.388ZM 90.2641 9.296L 94.3681 9.296L 94.3681 18.8L 94.4401 18.8C 94.7281 18.344 95.0761 17.936 95.4841 17.576C 95.8921 17.216 96.3361 16.916 96.8161 16.676C 97.3201 16.412 97.8361 16.22 98.3641 16.1C 98.9161 15.956 99.4561 15.884 99.9841 15.884C 101.448 15.884 102.72 16.148 103.8 16.676C 104.904 17.18 105.816 17.888 106.536 18.8C 107.256 19.688 107.796 20.732 108.156 21.932C 108.516 23.132 108.696 24.416 108.696 25.784C 108.696 27.032 108.528 28.244 108.192 29.42C 107.88 30.596 107.388 31.64 106.716 32.552C 106.068 33.44 105.24 34.16 104.232 34.712C 103.224 35.24 102.036 35.504 100.668 35.504C 100.044 35.504 99.4081 35.456 98.7601 35.36C 98.1361 35.288 97.5361 35.132 96.9601 34.892C 96.3841 34.652 95.8561 34.34 95.3761 33.956C 94.9201 33.572 94.5361 33.068 94.2241 32.444L 94.1521 32.444L 94.1521 35L 90.2641 35L 90.2641 9.296ZM 104.592 25.712C 104.592 24.872 104.484 24.056 104.268 23.264C 104.052 22.472 103.728 21.776 103.296 21.176C 102.864 20.552 102.324 20.06 101.676 19.7C 101.028 19.316 100.284 19.124 99.4441 19.124C 97.7161 19.124 96.4081 19.724 95.5201 20.924C 94.6561 22.124 94.2241 23.72 94.2241 25.712C 94.2241 26.648 94.3321 27.524 94.5481 28.34C 94.7881 29.132 95.1361 29.816 95.5921 30.392C 96.0481 30.968 96.5881 31.424 97.2121 31.76C 97.8601 32.096 98.6041 32.264 99.4441 32.264C 100.38 32.264 101.172 32.072 101.82 31.688C 102.468 31.304 102.996 30.812 103.404 30.212C 103.836 29.588 104.136 28.892 104.304 28.124C 104.496 27.332 104.592 26.528 104.592 25.712ZM 120.696 35.504C 119.208 35.504 117.876 35.264 116.7 34.784C 115.548 34.28 114.564 33.596 113.748 32.732C 112.956 31.868 112.344 30.836 111.912 29.636C 111.504 28.436 111.3 27.116 111.3 25.676C 111.3 24.26 111.504 22.952 111.912 21.752C 112.344 20.552 112.956 19.52 113.748 18.656C 114.564 17.792 115.548 17.12 116.7 16.64C 117.876 16.136 119.208 15.884 120.696 15.884C 122.184 15.884 123.504 16.136 124.656 16.64C 125.832 17.12 126.816 17.792 127.608 18.656C 128.424 19.52 129.036 20.552 129.444 21.752C 129.876 22.952 130.092 24.26 130.092 25.676C 130.092 27.116 129.876 28.436 129.444 29.636C 129.036 30.836 128.424 31.868 127.608 32.732C 126.816 33.596 125.832 34.28 124.656 34.784C 123.504 35.264 122.184 35.504 120.696 35.504ZM 120.696 32.264C 121.608 32.264 122.4 32.072 123.072 31.688C 123.744 31.304 124.296 30.8 124.728 30.176C 125.16 29.552 125.472 28.856 125.664 28.088C 125.88 27.296 125.988 26.492 125.988 25.676C 125.988 24.884 125.88 24.092 125.664 23.3C 125.472 22.508 125.16 21.812 124.728 21.212C 124.296 20.588 123.744 20.084 123.072 19.7C 122.4 19.316 121.608 19.124 120.696 19.124C 119.784 19.124 118.992 19.316 118.32 19.7C 117.648 20.084 117.096 20.588 116.664 21.212C 116.232 21.812 115.908 22.508 115.692 23.3C 115.5 24.092 115.404 24.884 115.404 25.676C 115.404 26.492 115.5 27.296 115.692 28.088C 115.908 28.856 116.232 29.552 116.664 30.176C 117.096 30.8 117.648 31.304 118.32 31.688C 118.992 32.072 119.784 32.264 120.696 32.264ZM 149.092 30.86C 149.092 31.364 149.152 31.724 149.272 31.94C 149.416 32.156 149.68 32.264 150.064 32.264C 150.184 32.264 150.328 32.264 150.496 32.264C 150.664 32.264 150.856 32.24 151.072 32.192L 151.072 35.036C 150.928 35.084 150.736 35.132 150.496 35.18C 150.28 35.252 150.052 35.312 149.812 35.36C 149.572 35.408 149.332 35.444 149.092 35.468C 148.852 35.492 148.648 35.504 148.48 35.504C 147.64 35.504 146.944 35.336 146.392 35C 145.84 34.664 145.48 34.076 145.312 33.236C 144.496 34.028 143.488 34.604 142.288 34.964C 141.112 35.324 139.972 35.504 138.868 35.504C 138.028 35.504 137.224 35.384 136.456 35.144C 135.688 34.928 135.004 34.604 134.404 34.172C 133.828 33.716 133.36 33.152 133 32.48C 132.664 31.784 132.496 30.98 132.496 30.068C 132.496 28.916 132.7 27.98 133.108 27.26C 133.54 26.54 134.092 25.976 134.764 25.568C 135.46 25.16 136.228 24.872 137.068 24.704C 137.932 24.512 138.796 24.368 139.66 24.272C 140.404 24.128 141.112 24.032 141.784 23.984C 142.456 23.912 143.044 23.804 143.548 23.66C 144.076 23.516 144.484 23.3 144.772 23.012C 145.084 22.7 145.24 22.244 145.24 21.644C 145.24 21.116 145.108 20.684 144.844 20.348C 144.604 20.012 144.292 19.76 143.908 19.592C 143.548 19.4 143.14 19.28 142.684 19.232C 142.228 19.16 141.796 19.124 141.388 19.124C 140.236 19.124 139.288 19.364 138.544 19.844C 137.8 20.324 137.38 21.068 137.284 22.076L 133.18 22.076C 133.252 20.876 133.54 19.88 134.044 19.088C 134.548 18.296 135.184 17.66 135.952 17.18C 136.744 16.7 137.632 16.364 138.616 16.172C 139.6 15.98 140.608 15.884 141.64 15.884C 142.552 15.884 143.452 15.98 144.34 16.172C 145.228 16.364 146.02 16.676 146.716 17.108C 147.436 17.54 148.012 18.104 148.444 18.8C 148.876 19.472 149.092 20.3 149.092 21.284L 149.092 30.86ZM 144.988 25.676C 144.364 26.084 143.596 26.336 142.684 26.432C 141.772 26.504 140.86 26.624 139.948 26.792C 139.516 26.864 139.096 26.972 138.688 27.116C 138.28 27.236 137.92 27.416 137.608 27.656C 137.296 27.872 137.044 28.172 136.852 28.556C 136.684 28.916 136.6 29.36 136.6 29.888C 136.6 30.344 136.732 30.728 136.996 31.04C 137.26 31.352 137.572 31.604 137.932 31.796C 138.316 31.964 138.724 32.084 139.156 32.156C 139.612 32.228 140.02 32.264 140.38 32.264C 140.836 32.264 141.328 32.204 141.856 32.084C 142.384 31.964 142.876 31.76 143.332 31.472C 143.812 31.184 144.208 30.824 144.52 30.392C 144.832 29.936 144.988 29.384 144.988 28.736L 144.988 25.676ZM 153.508 16.388L 157.36 16.388L 157.36 19.988L 157.432 19.988C 157.552 19.484 157.78 18.992 158.116 18.512C 158.476 18.032 158.896 17.6 159.376 17.216C 159.88 16.808 160.432 16.484 161.032 16.244C 161.632 16.004 162.244 15.884 162.868 15.884C 163.348 15.884 163.672 15.896 163.84 15.92C 164.032 15.944 164.224 15.968 164.416 15.992L 164.416 19.952C 164.128 19.904 163.828 19.868 163.516 19.844C 163.228 19.796 162.94 19.772 162.652 19.772C 161.956 19.772 161.296 19.916 160.672 20.204C 160.072 20.468 159.544 20.876 159.088 21.428C 158.632 21.956 158.272 22.616 158.008 23.408C 157.744 24.2 157.612 25.112 157.612 26.144L 157.612 35L 153.508 35L 153.508 16.388ZM 183.38 35L 179.492 35L 179.492 32.48L 179.419 32.48C 178.868 33.56 178.064 34.34 177.007 34.82C 175.951 35.276 174.835 35.504 173.66 35.504C 172.196 35.504 170.911 35.252 169.808 34.748C 168.727 34.22 167.827 33.512 167.107 32.624C 166.387 31.736 165.848 30.692 165.488 29.492C 165.127 28.268 164.947 26.96 164.947 25.568C 164.947 23.888 165.175 22.436 165.631 21.212C 166.087 19.988 166.688 18.98 167.431 18.188C 168.2 17.396 169.064 16.82 170.024 16.46C 171.008 16.076 172.004 15.884 173.012 15.884C 173.588 15.884 174.175 15.944 174.775 16.064C 175.375 16.16 175.952 16.328 176.504 16.568C 177.055 16.808 177.56 17.12 178.016 17.504C 178.495 17.864 178.891 18.296 179.203 18.8L 179.275 18.8L 179.275 9.296L 183.38 9.296L 183.38 35ZM 169.052 25.892C 169.052 26.684 169.147 27.464 169.339 28.232C 169.555 29 169.868 29.684 170.275 30.284C 170.707 30.884 171.248 31.364 171.895 31.724C 172.543 32.084 173.311 32.264 174.2 32.264C 175.112 32.264 175.892 32.072 176.54 31.688C 177.212 31.304 177.752 30.8 178.16 30.176C 178.591 29.552 178.903 28.856 179.095 28.088C 179.311 27.296 179.419 26.492 179.419 25.676C 179.419 23.612 178.952 22.004 178.016 20.852C 177.103 19.7 175.856 19.124 174.272 19.124C 173.311 19.124 172.495 19.328 171.823 19.736C 171.175 20.12 170.635 20.636 170.203 21.284C 169.796 21.908 169.495 22.628 169.303 23.444C 169.135 24.236 169.052 25.052 169.052 25.892ZM 187.647 9.296L 191.751 9.296L 191.751 13.184L 187.647 13.184L 187.647 9.296ZM 187.647 16.388L 191.751 16.388L 191.751 35L 187.647 35L 187.647 16.388ZM 196.222 16.388L 200.111 16.388L 200.111 19.124L 200.183 19.196C 200.806 18.164 201.623 17.36 202.631 16.784C 203.639 16.184 204.755 15.884 205.978 15.884C 208.018 15.884 209.627 16.412 210.803 17.468C 211.978 18.524 212.566 20.108 212.566 22.22L 212.566 35L 208.463 35L 208.463 23.3C 208.415 21.836 208.102 20.78 207.526 20.132C 206.951 19.46 206.05 19.124 204.827 19.124C 204.131 19.124 203.506 19.256 202.954 19.52C 202.403 19.76 201.934 20.108 201.55 20.564C 201.166 20.996 200.867 21.512 200.65 22.112C 200.434 22.712 200.327 23.348 200.327 24.02L 200.327 35L 196.222 35L 196.222 16.388ZM 234.102 34.028C 234.102 36.836 233.31 38.924 231.726 40.292C 230.166 41.684 227.91 42.38 224.958 42.38C 224.022 42.38 223.074 42.284 222.114 42.092C 221.178 41.9 220.314 41.576 219.522 41.12C 218.754 40.664 218.106 40.064 217.578 39.32C 217.05 38.576 216.738 37.664 216.642 36.584L 220.746 36.584C 220.866 37.16 221.07 37.628 221.358 37.988C 221.646 38.348 221.982 38.624 222.366 38.816C 222.774 39.032 223.218 39.164 223.698 39.212C 224.178 39.284 224.682 39.32 225.21 39.32C 226.866 39.32 228.078 38.912 228.846 38.096C 229.614 37.28 229.998 36.104 229.998 34.568L 229.998 31.724L 229.926 31.724C 229.35 32.756 228.558 33.56 227.55 34.136C 226.566 34.712 225.498 35 224.346 35C 222.858 35 221.586 34.748 220.53 34.244C 219.498 33.716 218.634 33.008 217.938 32.12C 217.266 31.208 216.774 30.164 216.462 28.988C 216.15 27.812 215.994 26.552 215.994 25.208C 215.994 23.96 216.186 22.772 216.57 21.644C 216.954 20.516 217.506 19.532 218.226 18.692C 218.946 17.828 219.822 17.144 220.854 16.64C 221.91 16.136 223.098 15.884 224.418 15.884C 225.594 15.884 226.674 16.136 227.658 16.64C 228.642 17.12 229.398 17.888 229.926 18.944L 229.998 18.944L 229.998 16.388L 234.102 16.388L 234.102 34.028ZM 224.994 31.76C 225.906 31.76 226.674 31.58 227.298 31.22C 227.946 30.836 228.462 30.344 228.846 29.744C 229.254 29.12 229.542 28.424 229.71 27.656C 229.902 26.864 229.998 26.072 229.998 25.28C 229.998 24.488 229.902 23.72 229.71 22.976C 229.518 22.232 229.218 21.572 228.81 20.996C 228.426 20.42 227.91 19.964 227.262 19.628C 226.638 19.292 225.882 19.124 224.994 19.124C 224.082 19.124 223.314 19.316 222.69 19.7C 222.066 20.084 221.562 20.588 221.178 21.212C 220.794 21.812 220.518 22.508 220.35 23.3C 220.182 24.068 220.098 24.836 220.098 25.604C 220.098 26.372 220.194 27.128 220.386 27.872C 220.578 28.592 220.866 29.24 221.25 29.816C 221.658 30.392 222.162 30.86 222.762 31.22C 223.386 31.58 224.13 31.76 224.994 31.76Z"/>
<path id="path4_fill" d="M 2.736 9.296L 7.236 9.296L 7.236 35L 2.736 35L 2.736 9.296ZM 29.7115 35L 25.8235 35L 25.8235 32.48L 25.7515 32.48C 25.1995 33.56 24.3955 34.34 23.3395 34.82C 22.2835 35.276 21.1675 35.504 19.9915 35.504C 18.5275 35.504 17.2435 35.252 16.1395 34.748C 15.0595 34.22 14.1595 33.512 13.4395 32.624C 12.7195 31.736 12.1795 30.692 11.8195 29.492C 11.4595 28.268 11.2795 26.96 11.2795 25.568C 11.2795 23.888 11.5075 22.436 11.9635 21.212C 12.4195 19.988 13.0195 18.98 13.7635 18.188C 14.5315 17.396 15.3955 16.82 16.3555 16.46C 17.3395 16.076 18.3355 15.884 19.3435 15.884C 19.9195 15.884 20.5075 15.944 21.1075 16.064C 21.7075 16.16 22.2835 16.328 22.8355 16.568C 23.3875 16.808 23.8915 17.12 24.3475 17.504C 24.8275 17.864 25.2235 18.296 25.5355 18.8L 25.6075 18.8L 25.6075 9.296L 29.7115 9.296L 29.7115 35ZM 15.3835 25.892C 15.3835 26.684 15.4795 27.464 15.6715 28.232C 15.8875 29 16.1995 29.684 16.6075 30.284C 17.0395 30.884 17.5795 31.364 18.2275 31.724C 18.8755 32.084 19.6435 32.264 20.5315 32.264C 21.4435 32.264 22.2235 32.072 22.8715 31.688C 23.5435 31.304 24.0835 30.8 24.4915 30.176C 24.9235 29.552 25.2355 28.856 25.4275 28.088C 25.6435 27.296 25.7515 26.492 25.7515 25.676C 25.7515 23.612 25.2835 22.004 24.3475 20.852C 23.4355 19.7 22.1875 19.124 20.6035 19.124C 19.6435 19.124 18.8275 19.328 18.1555 19.736C 17.5075 20.12 16.9675 20.636 16.5355 21.284C 16.1275 21.908 15.8275 22.628 15.6355 23.444C 15.4675 24.236 15.3835 25.052 15.3835 25.892ZM 46.9673 24.056C 46.9193 23.408 46.7753 22.784 46.5353 22.184C 46.3193 21.584 46.0073 21.068 45.5993 20.636C 45.2153 20.18 44.7353 19.82 44.1593 19.556C 43.6073 19.268 42.9833 19.124 42.2873 19.124C 41.5673 19.124 40.9073 19.256 40.3073 19.52C 39.7313 19.76 39.2273 20.108 38.7953 20.564C 38.3873 20.996 38.0513 21.512 37.7873 22.112C 37.5473 22.712 37.4153 23.36 37.3913 24.056L 46.9673 24.056ZM 37.3913 26.756C 37.3913 27.476 37.4873 28.172 37.6793 28.844C 37.8953 29.516 38.2073 30.104 38.6153 30.608C 39.0233 31.112 39.5393 31.52 40.1633 31.832C 40.7873 32.12 41.5313 32.264 42.3953 32.264C 43.5953 32.264 44.5553 32.012 45.2753 31.508C 46.0193 30.98 46.5713 30.2 46.9313 29.168L 50.8193 29.168C 50.6033 30.176 50.2313 31.076 49.7033 31.868C 49.1753 32.66 48.5393 33.332 47.7953 33.884C 47.0513 34.412 46.2113 34.808 45.2753 35.072C 44.3633 35.36 43.4033 35.504 42.3953 35.504C 40.9313 35.504 39.6353 35.264 38.5073 34.784C 37.3793 34.304 36.4193 33.632 35.6273 32.768C 34.8593 31.904 34.2713 30.872 33.8633 29.672C 33.4793 28.472 33.2873 27.152 33.2873 25.712C 33.2873 24.392 33.4913 23.144 33.8993 21.968C 34.3313 20.768 34.9313 19.724 35.6993 18.836C 36.4913 17.924 37.4393 17.204 38.5433 16.676C 39.6473 16.148 40.8953 15.884 42.2873 15.884C 43.7513 15.884 45.0593 16.196 46.2113 16.82C 47.3873 17.42 48.3593 18.224 49.1273 19.232C 49.8953 20.24 50.4473 21.404 50.7833 22.724C 51.1433 24.02 51.2393 25.364 51.0713 26.756L 37.3913 26.756ZM 69.7793 30.86C 69.7793 31.364 69.8392 31.724 69.9592 31.94C 70.1033 32.156 70.3672 32.264 70.7512 32.264C 70.8713 32.264 71.0152 32.264 71.1833 32.264C 71.3513 32.264 71.5433 32.24 71.7593 32.192L 71.7593 35.036C 71.6153 35.084 71.4232 35.132 71.1833 35.18C 70.9673 35.252 70.7392 35.312 70.4993 35.36C 70.2593 35.408 70.0192 35.444 69.7793 35.468C 69.5393 35.492 69.3353 35.504 69.1672 35.504C 68.3272 35.504 67.6313 35.336 67.0793 35C 66.5273 34.664 66.1673 34.076 65.9993 33.236C 65.1833 34.028 64.1753 34.604 62.9753 34.964C 61.7993 35.324 60.6593 35.504 59.5553 35.504C 58.7153 35.504 57.9113 35.384 57.1433 35.144C 56.3753 34.928 55.6913 34.604 55.0913 34.172C 54.5153 33.716 54.0472 33.152 53.6872 32.48C 53.3513 31.784 53.1833 30.98 53.1833 30.068C 53.1833 28.916 53.3873 27.98 53.7953 27.26C 54.2273 26.54 54.7793 25.976 55.4513 25.568C 56.1472 25.16 56.9153 24.872 57.7553 24.704C 58.6193 24.512 59.4833 24.368 60.3473 24.272C 61.0913 24.128 61.7993 24.032 62.4712 23.984C 63.1432 23.912 63.7313 23.804 64.2353 23.66C 64.7633 23.516 65.1713 23.3 65.4592 23.012C 65.7712 22.7 65.9273 22.244 65.9273 21.644C 65.9273 21.116 65.7952 20.684 65.5312 20.348C 65.2913 20.012 64.9793 19.76 64.5953 19.592C 64.2353 19.4 63.8273 19.28 63.3713 19.232C 62.9153 19.16 62.4832 19.124 62.0752 19.124C 60.9232 19.124 59.9753 19.364 59.2313 19.844C 58.4873 20.324 58.0673 21.068 57.9712 22.076L 53.8672 22.076C 53.9393 20.876 54.2273 19.88 54.7313 19.088C 55.2353 18.296 55.8713 17.66 56.6393 17.18C 57.4313 16.7 58.3192 16.364 59.3032 16.172C 60.2873 15.98 61.2952 15.884 62.3272 15.884C 63.2392 15.884 64.1392 15.98 65.0272 16.172C 65.9153 16.364 66.7073 16.676 67.4032 17.108C 68.1232 17.54 68.6992 18.104 69.1312 18.8C 69.5632 19.472 69.7793 20.3 69.7793 21.284L 69.7793 30.86ZM 65.6753 25.676C 65.0513 26.084 64.2833 26.336 63.3713 26.432C 62.4593 26.504 61.5472 26.624 60.6352 26.792C 60.2032 26.864 59.7833 26.972 59.3753 27.116C 58.9672 27.236 58.6073 27.416 58.2953 27.656C 57.9833 27.872 57.7313 28.172 57.5393 28.556C 57.3713 28.916 57.2873 29.36 57.2873 29.888C 57.2873 30.344 57.4192 30.728 57.6833 31.04C 57.9473 31.352 58.2593 31.604 58.6193 31.796C 59.0033 31.964 59.4112 32.084 59.8432 32.156C 60.2993 32.228 60.7073 32.264 61.0673 32.264C 61.5233 32.264 62.0153 32.204 62.5433 32.084C 63.0712 31.964 63.5632 31.76 64.0192 31.472C 64.4993 31.184 64.8953 30.824 65.2073 30.392C 65.5192 29.936 65.6753 29.384 65.6753 28.736L 65.6753 25.676ZM 72.3232 16.388L 75.4192 16.388L 75.4192 10.808L 79.5232 10.808L 79.5232 16.388L 83.2312 16.388L 83.2312 19.448L 79.5232 19.448L 79.5232 29.384C 79.5232 29.816 79.5352 30.188 79.5592 30.5C 79.6072 30.812 79.6912 31.076 79.8112 31.292C 79.9552 31.508 80.1592 31.676 80.4232 31.796C 80.6872 31.892 81.0472 31.94 81.5032 31.94C 81.7912 31.94 82.0792 31.94 82.3672 31.94C 82.6552 31.916 82.9432 31.868 83.2312 31.796L 83.2312 34.964C 82.7752 35.012 82.3312 35.06 81.8992 35.108C 81.4672 35.156 81.0232 35.18 80.5672 35.18C 79.4872 35.18 78.6112 35.084 77.9392 34.892C 77.2912 34.676 76.7752 34.376 76.3912 33.992C 76.0312 33.584 75.7792 33.08 75.6352 32.48C 75.5152 31.88 75.4432 31.196 75.4192 30.428L 75.4192 19.448L 72.3232 19.448L 72.3232 16.388ZM 86.2914 9.296L 90.3954 9.296L 90.3954 13.184L 86.2914 13.184L 86.2914 9.296ZM 86.2914 16.388L 90.3954 16.388L 90.3954 35L 86.2914 35L 86.2914 16.388ZM 103.399 35.504C 101.911 35.504 100.579 35.264 99.403 34.784C 98.251 34.28 97.267 33.596 96.451 32.732C 95.659 31.868 95.047 30.836 94.615 29.636C 94.207 28.436 94.003 27.116 94.003 25.676C 94.003 24.26 94.207 22.952 94.615 21.752C 95.047 20.552 95.659 19.52 96.451 18.656C 97.267 17.792 98.251 17.12 99.403 16.64C 100.579 16.136 101.911 15.884 103.399 15.884C 104.887 15.884 106.207 16.136 107.359 16.64C 108.535 17.12 109.519 17.792 110.311 18.656C 111.127 19.52 111.739 20.552 112.147 21.752C 112.579 22.952 112.795 24.26 112.795 25.676C 112.795 27.116 112.579 28.436 112.147 29.636C 111.739 30.836 111.127 31.868 110.311 32.732C 109.519 33.596 108.535 34.28 107.359 34.784C 106.207 35.264 104.887 35.504 103.399 35.504ZM 103.399 32.264C 104.311 32.264 105.103 32.072 105.775 31.688C 106.447 31.304 106.999 30.8 107.431 30.176C 107.863 29.552 108.175 28.856 108.367 28.088C 108.583 27.296 108.691 26.492 108.691 25.676C 108.691 24.884 108.583 24.092 108.367 23.3C 108.175 22.508 107.863 21.812 107.431 21.212C 106.999 20.588 106.447 20.084 105.775 19.7C 105.103 19.316 104.311 19.124 103.399 19.124C 102.487 19.124 101.695 19.316 101.023 19.7C 100.351 20.084 99.799 20.588 99.367 21.212C 98.935 21.812 98.611 22.508 98.395 23.3C 98.203 24.092 98.107 24.884 98.107 25.676C 98.107 26.492 98.203 27.296 98.395 28.088C 98.611 28.856 98.935 29.552 99.367 30.176C 99.799 30.8 100.351 31.304 101.023 31.688C 101.695 32.072 102.487 32.264 103.399 32.264ZM 116.207 16.388L 120.095 16.388L 120.095 19.124L 120.167 19.196C 120.791 18.164 121.607 17.36 122.615 16.784C 123.623 16.184 124.739 15.884 125.963 15.884C 128.003 15.884 129.611 16.412 130.787 17.468C 131.963 18.524 132.551 20.108 132.551 22.22L 132.551 35L 128.447 35L 128.447 23.3C 128.399 21.836 128.087 20.78 127.511 20.132C 126.935 19.46 126.035 19.124 124.811 19.124C 124.115 19.124 123.491 19.256 122.939 19.52C 122.387 19.76 121.919 20.108 121.535 20.564C 121.151 20.996 120.851 21.512 120.635 22.112C 120.419 22.712 120.311 23.348 120.311 24.02L 120.311 35L 116.207 35L 116.207 16.388Z"/>
<path id="path5_stroke" d="M 83.5355 3.53553C 85.4882 1.58291 85.4882 -1.58291 83.5355 -3.53553L 51.7157 -35.3553C 49.7631 -37.308 46.5973 -37.308 44.6447 -35.3553C 42.692 -33.4027 42.692 -30.2369 44.6447 -28.2843L 72.9289 0L 44.6447 28.2843C 42.692 30.2369 42.692 33.4027 44.6447 35.3553C 46.5973 37.308 49.7631 37.308 51.7157 35.3553L 83.5355 3.53553ZM 0 5L 80 5L 80 -5L 0 -5L 0 5Z"/>
</defs>
</svg>
